<?xml version="1.0" encoding="utf-8"?>
<!-- Generator: Adobe Illustrator 25.3.0, SVG Export Plug-In . SVG Version: 6.00 Build 0)  -->
<svg version="1.1" id="bb062eb6-a037-47fd-9603-73e11e0115b9"
	 xmlns="http://www.w3.org/2000/svg" xmlns:xlink="http://www.w3.org/1999/xlink" x="0px" y="0px" viewBox="0 0 251.4 251.4"
	 style="enable-background:new 0 0 251.4 251.4;" xml:space="preserve">
<style type="text/css">
	.st0{fill:#0D826E;}
</style>
<path class="st0" d="M249,61c-38.7,8-71.6,29.2-93.3,60.1s-30.3,69.1-24.6,108.1c38.7-8,71.6-29.2,93.3-60.1S254.6,100.1,249,61z
	 M125.7,150.9c8-22.4,21-42.7,38-59.3c-6.4-26.1-19.5-50-38-69.4c-18.5,19.5-31.6,43.4-38,69.4c6.8,6.7,13.1,14.1,18.6,22
	C114.5,125.2,120.9,137.7,125.7,150.9z M27,169.1c21.2,30.3,53.2,51.2,90.7,59.7c-2.4-17.6-1.9-35.5,1.3-52.9
	c-3.9-19.7-11.9-38.3-23.3-54.7C73.9,90.3,41,69.1,2.5,61C-3.3,100.1,5.4,138.3,27,169.1z"/>
</svg>
